# xmcd CD database file
#
# Track frame offsets:
#	150
#	23067
#	41180
#	58222
#	73902
#	93810
#	109055
#	126742
#	145312
#	163455
#	182597
#	199215
#	215085
#	232740
#	250932
#	268980
#	285845
#	300497
#
# Disc length: 4203 seconds
#
# Revision: 1
# Processed by: cddbd v1.5.2PL0 Copyright (c) Steve Scherf et al.
# Submitted via: CDex 1.51
#
DISCID=18106912
DTITLE=Various Artist - Hit Box 6 - "הייפר הייפר" - להיט הריקודים מס' 1 ועוד 17 להיטי פיצוץ!!!
DYEAR=1994
DGENRE=90's
TTITLE0=Scooter - Hyper Hyper
TTITLE1=Scotlands, The - On The Mountain Of Highlands (Single Version)
TTITLE2=Reel 2 Real - Can You Feel It? (Erick 'More' Radio Edit) (feat. The Mad Stuntman)
TTITLE3=Maxx - You Can Get It (Airplay Mix)
TTITLE4=Erasure - Run To The Sun (The Simon and Diamond Bhangra Remix)
TTITLE5=Gate to Africa - Yuwaja (Yuwaja 7'' Mix) (feat. Sally Kaniaru)
TTITLE6=TN'T Party Zone - Das Omen (Teil 1) '94 (TN'T Radio Edit)
TTITLE7=Magic Affair - In The Middle Of The Night (Single Edit)
TTITLE8=Jam and Spoon - Find Me (Odyssey To Anyoona) (Radio Mix) (feat. Plavka)
TTITLE9=Pharao - I Show You Secrets (Video Vision)
TTITLE10=Interactive - Forever Young (Radio Edit)
TTITLE11=E-Rotic - Max Don't Have Sex With Your Ex (Radio Edit)
TTITLE12=Intermission - Give Peace A Chance (Single Mix) (feat. Lori Glori)
TTITLE13=Blondie - Atomic (Diddy's Edit)
TTITLE14=B.G. The Prince of Rap - Rock A Bit (Radio Edit)
TTITLE15=Absolutely Fabulous - Absolutely Fabulous (7" Mix)
TTITLE16=Shampoo - Trouble
TTITLE17=Stone-Age - (Meet) The Flintstones (Dance Version - Radio Version) (feat. Linda Jo)
EXTD=YEAR: 1994
EXTT0=
EXTT1=
EXTT2=
EXTT3=
EXTT4=
EXTT5=
EXTT6=
EXTT7=
EXTT8=
EXTT9=
EXTT10=
EXTT11=
EXTT12=
EXTT13=
EXTT14=
EXTT15=
EXTT16=
EXTT17=
PLAYORDER=
